<svg version="1.1" viewBox="0.0 0.0 954.0314960629921 131.0708661417323" fill="none" stroke="none" stroke-linecap="square" stroke-miterlimit="10" xmlns="http://www.w3.org/2000/svg" xmlns:xlink="http://www.w3.org/1999/xlink"><clipPath id="p.0"><path d="m0 0l954.0315 0l0 131.07086l-954.0315 0l0 -131.07086z" clip-rule="nonzero"></path></clipPath><g clip-path="url(#p.0)"><path fill="#000000" fill-opacity="0.0" d="m0 0l954.0315 0l0 131.07086l-954.0315 0z" fill-rule="evenodd"></path><path fill="#fff2cc" d="m46.03937 43.748577l0 0c0 -6.9464607 5.631218 -12.577679 12.577679 -12.577679l116.79739 0c3.3358154 0 6.5349884 1.3251457 8.893768 3.683918c2.3587646 2.3587723 3.6839142 5.557953 3.6839142 8.893761l0 50.309208c0 6.9464645 -5.6312256 12.5776825 -12.5776825 12.5776825l-116.79739 0c-6.9464607 0 -12.577679 -5.631218 -12.577679 -12.5776825z" fill-rule="evenodd"></path><path stroke="#000000" stroke-width="1.0" stroke-linejoin="round" stroke-linecap="butt" d="m46.03937 43.748577l0 0c0 -6.9464607 5.631218 -12.577679 12.577679 -12.577679l116.79739 0c3.3358154 0 6.5349884 1.3251457 8.893768 3.683918c2.3587646 2.3587723 3.6839142 5.557953 3.6839142 8.893761l0 50.309208c0 6.9464645 -5.6312256 12.5776825 -12.5776825 12.5776825l-116.79739 0c-6.9464607 0 -12.577679 -5.631218 -12.577679 -12.5776825z" fill-rule="evenodd"></path><path fill="#000000" d="m58.691998 75.82318l5.234375 -13.59375l1.9374962 0l5.5625 13.59375l-2.046875 0l-1.59375 -4.125l-5.687496 0l-1.484375 4.125l-1.921875 0zm3.921875 -5.578125l4.609371 0l-1.40625 -3.78125q-0.65625 -1.703125 -0.96875 -2.8125q-0.265625 1.3125 -0.734375 2.59375l-1.4999962 4.0z" fill-rule="nonzero"></path><path fill="#fff2cc" d="m227.5315 43.748577l0 0c0 -6.9464607 5.6312256 -12.577679 12.5776825 -12.577679l116.79741 0c3.335785 0 6.534973 1.3251457 8.893738 3.683918c2.3587952 2.3587723 3.6839294 5.557953 3.6839294 8.893761l0 50.309208c0 6.9464645 -5.6312256 12.5776825 -12.577667 12.5776825l-116.79741 0c-6.946457 0 -12.5776825 -5.631218 -12.5776825 -12.5776825z" fill-rule="evenodd"></path><path stroke="#000000" stroke-width="1.0" stroke-linejoin="round" stroke-linecap="butt" d="m227.5315 43.748577l0 0c0 -6.9464607 5.6312256 -12.577679 12.5776825 -12.577679l116.79741 0c3.335785 0 6.534973 1.3251457 8.893738 3.683918c2.3587952 2.3587723 3.6839294 5.557953 3.6839294 8.893761l0 50.309208c0 6.9464645 -5.6312256 12.5776825 -12.577667 12.5776825l-116.79741 0c-6.946457 0 -12.5776825 -5.631218 -12.5776825 -12.5776825z" fill-rule="evenodd"></path><path fill="#000000" d="m241.606 75.82318l0 -13.59375l5.109375 0q1.546875 0 2.484375 0.40625q0.953125 0.40625 1.484375 1.265625q0.53125 0.859375 0.53125 1.796875q0 0.875 -0.46875 1.65625q-0.46875 0.765625 -1.4375 1.234375q1.234375 0.359375 1.890625 1.234375q0.671875 0.875 0.671875 2.0625q0 0.953125 -0.40625 1.78125q-0.390625 0.8125 -0.984375 1.265625q-0.59375 0.4375 -1.5 0.671875q-0.890625 0.21875 -2.1875 0.21875l-5.1875 0zm1.796875 -7.890625l2.9375 0q1.203125 0 1.71875 -0.15625q0.6875 -0.203125 1.03125 -0.671875q0.359375 -0.46875 0.359375 -1.1875q0 -0.671875 -0.328125 -1.1875q-0.328125 -0.515625 -0.9375 -0.703125q-0.59375 -0.203125 -2.0625 -0.203125l-2.71875 0l0 4.109375zm0 6.28125l3.390625 0q0.875 0 1.21875 -0.0625q0.625 -0.109375 1.046875 -0.359375q0.421875 -0.265625 0.6875 -0.765625q0.265625 -0.5 0.265625 -1.140625q0 -0.765625 -0.390625 -1.328125q-0.390625 -0.5625 -1.078125 -0.78125q-0.6875 -0.234375 -1.984375 -0.234375l-3.15625 0l0 4.671875z" fill-rule="nonzero"></path><path fill="#b6d7a8" d="m409.02625 43.748577l0 0c0 -6.9464607 5.6312256 -12.577679 12.577667 -12.577679l116.79739 0c3.3358154 0 6.535034 1.3251457 8.893799 3.683918c2.3587646 2.3587723 3.683899 5.557953 3.683899 8.893761l0 50.309208c0 6.9464645 -5.6312256 12.5776825 -12.577698 12.5776825l-116.79739 0c-6.9464417 0 -12.577667 -5.631218 -12.577667 -12.5776825z" fill-rule="evenodd"></path><path stroke="#000000" stroke-width="1.0" stroke-linejoin="round" stroke-linecap="butt" d="m409.02625 43.748577l0 0c0 -6.9464607 5.6312256 -12.577679 12.577667 -12.577679l116.79739 0c3.3358154 0 6.535034 1.3251457 8.893799 3.683918c2.3587646 2.3587723 3.683899 5.557953 3.683899 8.893761l0 50.309208c0 6.9464645 -5.6312256 12.5776825 -12.577698 12.5776825l-116.79739 0c-6.9464417 0 -12.577667 -5.631218 -12.577667 -12.5776825z" fill-rule="evenodd"></path><path fill="#000000" d="m434.4445 71.130684l3.375 1.0625q-0.78125 2.8125 -2.578125 4.1875q-1.796875 1.359375 -4.5625 1.359375q-3.421875 0 -5.625 -2.34375q-2.203125 -2.34375 -2.203125 -6.390625q0 -4.296875 2.203125 -6.656254q2.21875 -2.375 5.828125 -2.375q3.15625 0 5.125 1.859375q1.171875 1.09375 1.765625 3.1562538l-3.4375 0.828125q-0.3125 -1.34375 -1.28125 -2.1093788q-0.953125 -0.78125 -2.34375 -0.78125q-1.90625 0 -3.09375 1.3750038q-1.1875 1.375 -1.1875 4.4375q0 3.265625 1.171875 4.65625q1.171875 1.375 3.046875 1.375q1.375 0 2.375 -0.875q1.0 -0.890625 1.421875 -2.765625z" fill-rule="nonzero"></path><path fill="#d9d9d9" d="m590.5197 43.748577l0 0c0 -6.9464607 5.6311646 -12.577679 12.577637 -12.577679l116.797424 0c3.3358154 0 6.534973 1.3251457 8.893738 3.683918c2.3587646 2.3587723 3.683899 5.557953 3.683899 8.893761l0 50.309208c0 6.9464645 -5.6311646 12.5776825 -12.577637 12.5776825l-116.797424 0c-6.946472 0 -12.577637 -5.631218 -12.577637 -12.5776825z" fill-rule="evenodd"></path><path stroke="#999999" stroke-width="1.0" stroke-linejoin="round" stroke-linecap="butt" d="m590.5197 43.748577l0 0c0 -6.9464607 5.6311646 -12.577679 12.577637 -12.577679l116.797424 0c3.3358154 0 6.534973 1.3251457 8.893738 3.683918c2.3587646 2.3587723 3.683899 5.557953 3.683899 8.893761l0 50.309208c0 6.9464645 -5.6311646 12.5776825 -12.577637 12.5776825l-116.797424 0c-6.946472 0 -12.577637 -5.631218 -12.577637 -12.5776825z" fill-rule="evenodd"></path><path fill="#999999" d="m604.6723 75.82318l0 -13.59375l4.6875 0q1.578125 0 2.421875 0.1875q1.15625 0.265625 1.984375 0.96875q1.078125 0.921875 1.609375 2.34375q0.53125 1.40625 0.53125 3.21875q0 1.546875 -0.359375 2.75q-0.359375 1.1875 -0.921875 1.984375q-0.5625 0.78125 -1.234375 1.234375q-0.671875 0.4375 -1.625 0.671875q-0.953125 0.234375 -2.1875 0.234375l-4.90625 0zm1.796875 -1.609375l2.90625 0q1.34375 0 2.109375 -0.25q0.765625 -0.25 1.21875 -0.703125q0.640625 -0.640625 1.0 -1.71875q0.359375 -1.078125 0.359375 -2.625q0 -2.125 -0.703125 -3.265625q-0.703125 -1.15625 -1.703125 -1.546875q-0.71875 -0.28125 -2.328125 -0.28125l-2.859375 0l0 10.390625z" fill-rule="nonzero"></path><path fill="#d9d9d9" d="m772.0131 43.748577l0 0c0 -6.9464607 5.6312256 -12.577679 12.577698 -12.577679l116.79736 0c3.3358154 0 6.535034 1.3251457 8.893799 3.683918c2.3587646 2.3587723 3.683899 5.557953 3.683899 8.893761l0 50.309208c0 6.9464645 -5.6312256 12.5776825 -12.577698 12.5776825l-116.79736 0c-6.946472 0 -12.577698 -5.631218 -12.577698 -12.5776825z" fill-rule="evenodd"></path><path stroke="#999999" stroke-width="1.0" stroke-linejoin="round" stroke-linecap="butt" d="m772.0131 43.748577l0 0c0 -6.9464607 5.6312256 -12.577679 12.577698 -12.577679l116.79736 0c3.3358154 0 6.535034 1.3251457 8.893799 3.683918c2.3587646 2.3587723 3.683899 5.557953 3.683899 8.893761l0 50.309208c0 6.9464645 -5.6312256 12.5776825 -12.577698 12.5776825l-116.79736 0c-6.946472 0 -12.577698 -5.631218 -12.577698 -12.5776825z" fill-rule="evenodd"></path><path fill="#999999" d="m786.197 75.82318l0 -13.59375l9.84375 0l0 1.59375l-8.046875 0l0 4.171875l7.53125 0l0 1.59375l-7.53125 0l0 4.625l8.359375 0l0 1.609375l-10.15625 0z" fill-rule="nonzero"></path></g></svg>