<?xml version="1.0" standalone="yes"?>

<svg version="1.1" viewBox="0.0 0.0 200.3490813648294 197.11811023622047" fill="none" stroke="none" stroke-linecap="square" stroke-miterlimit="10" xmlns="http://www.w3.org/2000/svg" xmlns:xlink="http://www.w3.org/1999/xlink"><clipPath id="p.0"><path d="m0 0l200.34908 0l0 197.1181l-200.34908 0l0 -197.1181z" clip-rule="nonzero"></path></clipPath><g clip-path="url(#p.0)"><path fill="#000000" fill-opacity="0.0" d="m0 0l200.34908 0l0 197.1181l-200.34908 0z" fill-rule="nonzero"></path><path fill="#cfe2f3" d="m68.83465 13.553915l0 0c0 -3.0238552 2.4513168 -5.475175 5.475174 -5.475175l22.057526 0l0 0c1.4521027 0 2.8447342 0.5768471 3.8715286 1.6036415c1.0267944 1.0267944 1.6036453 2.419427 1.6036453 3.8715334l0 21.900045c0 3.0238533 -2.4513245 5.475174 -5.475174 5.475174l-22.057526 0c-3.023857 0 -5.475174 -2.4513206 -5.475174 -5.475174z" fill-rule="nonzero"></path><path stroke="#000000" stroke-width="1.0" stroke-linejoin="round" stroke-linecap="butt" d="m68.83465 13.553915l0 0c0 -3.0238552 2.4513168 -5.475175 5.475174 -5.475175l22.057526 0l0 0c1.4521027 0 2.8447342 0.5768471 3.8715286 1.6036415c1.0267944 1.0267944 1.6036453 2.419427 1.6036453 3.8715334l0 21.900045c0 3.0238533 -2.4513245 5.475174 -5.475174 5.475174l-22.057526 0c-3.023857 0 -5.475174 -2.4513206 -5.475174 -5.475174z" fill-rule="nonzero"></path><path fill="#000000" d="m79.40702 31.423935l5.234375 -13.59375l1.9375 0l5.5625 13.59375l-2.046875 0l-1.59375 -4.125l-5.6875 0l-1.484375 4.125l-1.921875 0zm3.921875 -5.578125l4.609375 0l-1.40625 -3.78125q-0.65625 -1.703125 -0.96875 -2.8125q-0.265625 1.3125 -0.734375 2.59375l-1.5 4.0z" fill-rule="nonzero"></path><path fill="#cfe2f3" d="m100.83465 61.553917l0 0c0 -3.023857 2.4513168 -5.475178 5.475174 -5.475178l22.057518 0l0 0c1.4521179 0 2.8447418 0.5768471 3.8715363 1.6036415c1.0267944 1.0267944 1.6036377 2.4194298 1.6036377 3.8715363l0 21.90004c0 3.023857 -2.4513092 5.475174 -5.475174 5.475174l-22.057518 0c-3.023857 0 -5.475174 -2.4513168 -5.475174 -5.475174z" fill-rule="nonzero"></path><path stroke="#000000" stroke-width="1.0" stroke-linejoin="round" stroke-linecap="butt" d="m100.83465 61.553917l0 0c0 -3.023857 2.4513168 -5.475178 5.475174 -5.475178l22.057518 0l0 0c1.4521179 0 2.8447418 0.5768471 3.8715363 1.6036415c1.0267944 1.0267944 1.6036377 2.4194298 1.6036377 3.8715363l0 21.90004c0 3.023857 -2.4513092 5.475174 -5.475174 5.475174l-22.057518 0c-3.023857 0 -5.475174 -2.4513168 -5.475174 -5.475174z" fill-rule="nonzero"></path><path fill="#000000" d="m122.610146 74.65831l1.796875 0.453125q-0.5625 2.21875 -2.03125 3.390625q-1.46875 1.15625 -3.59375 1.15625q-2.203125 0 -3.578125 -0.890625q-1.375 -0.90625 -2.09375 -2.59375q-0.71875 -1.703125 -0.71875 -3.65625q0 -2.125 0.796875 -3.703125q0.8125 -1.578125 2.3125 -2.390625q1.5 -0.828125 3.296875 -0.828125q2.046875 0 3.4375 1.046875q1.390625 1.03125 1.9375 2.90625l-1.765625 0.421875q-0.46875 -1.484375 -1.375 -2.15625q-0.90625 -0.6875 -2.265625 -0.6875q-1.5625 0 -2.625 0.75q-1.046875 0.75 -1.484375 2.03125q-0.421875 1.265625 -0.421875 2.609375q0 1.734375 0.5 3.03125q0.515625 1.28125 1.578125 1.921875q1.078125 0.640625 2.3125 0.640625q1.515625 0 2.5625 -0.859375q1.046875 -0.875 1.421875 -2.59375z" fill-rule="nonzero"></path><path fill="#cfe2f3" d="m44.834644 61.553917l0 0c0 -3.023857 2.4513206 -5.475178 5.475178 -5.475178l22.057526 0l0 0c1.4521027 0 2.8447342 0.5768471 3.8715286 1.6036415c1.0267944 1.0267944 1.6036453 2.4194298 1.6036453 3.8715363l0 21.90004c0 3.023857 -2.4513245 5.475174 -5.475174 5.475174l-22.057526 0c-3.023857 0 -5.475178 -2.4513168 -5.475178 -5.475174z" fill-rule="nonzero"></path><path stroke="#000000" stroke-width="1.0" stroke-linejoin="round" stroke-linecap="butt" d="m44.834644 61.553917l0 0c0 -3.023857 2.4513206 -5.475178 5.475178 -5.475178l22.057526 0l0 0c1.4521027 0 2.8447342 0.5768471 3.8715286 1.6036415c1.0267944 1.0267944 1.6036453 2.4194298 1.6036453 3.8715363l0 21.90004c0 3.023857 -2.4513245 5.475174 -5.475174 5.475174l-22.057526 0c-3.023857 0 -5.475178 -2.4513168 -5.475178 -5.475174z" fill-rule="nonzero"></path><path fill="#000000" d="m56.828896 79.423935l0 -13.59375l5.109375 0q1.546875 0 2.484375 0.40625q0.953125 0.40625 1.484375 1.265625q0.53125 0.859375 0.53125 1.796875q0 0.875 -0.46875 1.65625q-0.46875 0.765625 -1.4375 1.234375q1.234375 0.359375 1.890625 1.234375q0.671875 0.875 0.671875 2.0625q0 0.953125 -0.40625 1.78125q-0.390625 0.8125 -0.984375 1.265625q-0.59375 0.4375 -1.5 0.671875q-0.890625 0.21875 -2.1875 0.21875l-5.1875 0zm1.796875 -7.890625l2.9375 0q1.203125 0 1.71875 -0.15625q0.6875 -0.203125 1.03125 -0.671875q0.359375 -0.46875 0.359375 -1.1875q0 -0.671875 -0.328125 -1.1875q-0.328125 -0.515625 -0.9375 -0.703125q-0.59375 -0.203125 -2.0625 -0.203125l-2.71875 0l0 4.109375zm0 6.28125l3.390625 0q0.875 0 1.21875 -0.0625q0.625 -0.109375 1.046875 -0.359375q0.421875 -0.265625 0.6875 -0.765625q0.265625 -0.5 0.265625 -1.140625q0 -0.765625 -0.390625 -1.328125q-0.390625 -0.5625 -1.078125 -0.78125q-0.6875 -0.234375 -1.984375 -0.234375l-3.15625 0l0 4.671875z" fill-rule="nonzero"></path><path fill="#cfe2f3" d="m132.83464 109.55392l0 0c0 -3.023857 2.4513245 -5.475174 5.475174 -5.475174l22.057526 0l0 0c1.4521179 0 2.8447418 0.57684326 3.8715363 1.6036377c1.0267944 1.0267944 1.6036377 2.419426 1.6036377 3.8715363l0 21.900047c0 3.0238495 -2.4513092 5.475174 -5.475174 5.475174l-22.057526 0c-3.0238495 0 -5.475174 -2.4513245 -5.475174 -5.475174z" fill-rule="nonzero"></path><path stroke="#000000" stroke-width="1.0" stroke-linejoin="round" stroke-linecap="butt" d="m132.83464 109.55392l0 0c0 -3.023857 2.4513245 -5.475174 5.475174 -5.475174l22.057526 0l0 0c1.4521179 0 2.8447418 0.57684326 3.8715363 1.6036377c1.0267944 1.0267944 1.6036377 2.419426 1.6036377 3.8715363l0 21.900047c0 3.0238495 -2.4513092 5.475174 -5.475174 5.475174l-22.057526 0c-3.0238495 0 -5.475174 -2.4513245 -5.475174 -5.475174z" fill-rule="nonzero"></path><path fill="#000000" d="m145.00076 127.423935l0 -13.59375l9.171875 0l0 1.59375l-7.375 0l0 4.21875l6.375 0l0 1.609375l-6.375 0l0 6.171875l-1.796875 0z" fill-rule="nonzero"></path><path fill="#cfe2f3" d="m68.83465 109.55392l0 0c0 -3.023857 2.4513168 -5.475174 5.475174 -5.475174l22.057526 0l0 0c1.4521027 0 2.8447342 0.57684326 3.8715286 1.6036377c1.0267944 1.0267944 1.6036453 2.419426 1.6036453 3.8715363l0 21.900047c0 3.0238495 -2.4513245 5.475174 -5.475174 5.475174l-22.057526 0c-3.023857 0 -5.475174 -2.4513245 -5.475174 -5.475174z" fill-rule="nonzero"></path><path stroke="#000000" stroke-width="1.0" stroke-linejoin="round" stroke-linecap="butt" d="m68.83465 109.55392l0 0c0 -3.023857 2.4513168 -5.475174 5.475174 -5.475174l22.057526 0l0 0c1.4521027 0 2.8447342 0.57684326 3.8715286 1.6036377c1.0267944 1.0267944 1.6036453 2.419426 1.6036453 3.8715363l0 21.900047c0 3.0238495 -2.4513245 5.475174 -5.475174 5.475174l-22.057526 0c-3.023857 0 -5.475174 -2.4513245 -5.475174 -5.475174z" fill-rule="nonzero"></path><path fill="#000000" d="m80.93827 127.423935l0 -13.59375l9.84375 0l0 1.59375l-8.046875 0l0 4.171875l7.53125 0l0 1.59375l-7.53125 0l0 4.625l8.359375 0l0 1.609375l-10.15625 0z" fill-rule="nonzero"></path><path fill="#cfe2f3" d="m12.834645 109.55392l0 0c0 -3.023857 2.4513197 -5.475174 5.475175 -5.475174l22.057524 0l0 0c1.4521065 0 2.844738 0.57684326 3.8715324 1.6036377c1.0267944 1.0267944 1.6036415 2.419426 1.6036415 3.8715363l0 21.900047c0 3.0238495 -2.4513168 5.475174 -5.475174 5.475174l-22.057524 0c-3.0238552 0 -5.475175 -2.4513245 -5.475175 -5.475174z" fill-rule="nonzero"></path><path stroke="#000000" stroke-width="1.0" stroke-linejoin="round" stroke-linecap="butt" d="m12.834645 109.55392l0 0c0 -3.023857 2.4513197 -5.475174 5.475175 -5.475174l22.057524 0l0 0c1.4521065 0 2.844738 0.57684326 3.8715324 1.6036377c1.0267944 1.0267944 1.6036415 2.419426 1.6036415 3.8715363l0 21.900047c0 3.0238495 -2.4513168 5.475174 -5.475174 5.475174l-22.057524 0c-3.0238552 0 -5.475175 -2.4513245 -5.475175 -5.475174z" fill-rule="nonzero"></path><path fill="#000000" d="m24.90702 127.423935l0 -13.59375l4.6875 0q1.578125 0 2.421875 0.1875q1.15625 0.265625 1.984375 0.96875q1.078125 0.921875 1.609375 2.34375q0.53125 1.40625 0.53125 3.21875q0 1.546875 -0.359375 2.75q-0.359375 1.1875 -0.921875 1.984375q-0.5625 0.78125 -1.234375 1.234375q-0.671875 0.4375 -1.625 0.671875q-0.953125 0.234375 -2.1875 0.234375l-4.90625 0zm1.796875 -1.609375l2.90625 0q1.34375 0 2.109375 -0.25q0.765625 -0.25 1.21875 -0.703125q0.640625 -0.640625 1.0 -1.71875q0.359375 -1.078125 0.359375 -2.625q0 -2.125 -0.703125 -3.265625q-0.703125 -1.15625 -1.703125 -1.546875q-0.71875 -0.28125 -2.328125 -0.28125l-2.859375 0l0 10.390625z" fill-rule="nonzero"></path><path fill="#000000" fill-opacity="0.0" d="m85.338585 40.929134l-24.000004 15.149605" fill-rule="nonzero"></path><path stroke="#000000" stroke-width="1.0" stroke-linejoin="round" stroke-linecap="butt" d="m85.338585 40.929134l-24.000004 15.149605" fill-rule="nonzero"></path><path fill="#000000" fill-opacity="0.0" d="m85.338585 40.929134l32.0 15.149605" fill-rule="nonzero"></path><path stroke="#000000" stroke-width="1.0" stroke-linejoin="round" stroke-linecap="butt" d="m85.338585 40.929134l32.0 15.149605" fill-rule="nonzero"></path><path fill="#000000" fill-opacity="0.0" d="m117.338585 88.92913l31.999992 15.149612" fill-rule="nonzero"></path><path stroke="#000000" stroke-width="1.0" stroke-linejoin="round" stroke-linecap="butt" d="m117.338585 88.92913l31.999992 15.149612" fill-rule="nonzero"></path><path fill="#000000" fill-opacity="0.0" d="m117.338585 88.92913l-32.0 15.149612" fill-rule="nonzero"></path><path stroke="#000000" stroke-width="1.0" stroke-linejoin="round" stroke-linecap="butt" d="m117.338585 88.92913l-32.0 15.149612" fill-rule="nonzero"></path><path fill="#000000" fill-opacity="0.0" d="m61.33858 88.92913l24.000004 15.149612" fill-rule="nonzero"></path><path stroke="#000000" stroke-width="1.0" stroke-linejoin="round" stroke-linecap="butt" d="m61.33858 88.92913l24.000004 15.149612" fill-rule="nonzero"></path><path fill="#000000" fill-opacity="0.0" d="m61.33858 88.92913l-31.999998 15.149612" fill-rule="nonzero"></path><path stroke="#000000" stroke-width="1.0" stroke-linejoin="round" stroke-linecap="butt" d="m61.33858 88.92913l-31.999998 15.149612" fill-rule="nonzero"></path><path fill="#cfe2f3" d="m154.91602 157.55391l0 0c0 -3.0238495 2.4513092 -5.475174 5.475174 -5.475174l22.057526 0l0 0c1.4521027 0 2.8447266 0.5768585 3.871521 1.603653c1.0267944 1.0267944 1.603653 2.4194183 1.603653 3.871521l0 21.900055c0 3.0238495 -2.4513245 5.475174 -5.475174 5.475174l-22.057526 0c-3.0238647 0 -5.475174 -2.4513245 -5.475174 -5.475174z" fill-rule="nonzero"></path><path stroke="#000000" stroke-width="1.0" stroke-linejoin="round" stroke-linecap="butt" d="m154.91602 157.55391l0 0c0 -3.0238495 2.4513092 -5.475174 5.475174 -5.475174l22.057526 0l0 0c1.4521027 0 2.8447266 0.5768585 3.871521 1.603653c1.0267944 1.0267944 1.603653 2.4194183 1.603653 3.871521l0 21.900055c0 3.0238495 -2.4513245 5.475174 -5.475174 5.475174l-22.057526 0c-3.0238647 0 -5.475174 -2.4513245 -5.475174 -5.475174z" fill-rule="nonzero"></path><path fill="#000000" d="m167.03526 175.42393l0 -13.59375l1.8125 0l0 5.578125l7.0625 0l0 -5.578125l1.796875 0l0 13.59375l-1.796875 0l0 -6.40625l-7.0625 0l0 6.40625l-1.8125 0z" fill-rule="nonzero"></path><path fill="#cfe2f3" d="m106.926506 157.55391l0 0c0 -3.0238495 2.4513245 -5.475174 5.4751816 -5.475174l22.057526 0l0 0c1.4521027 0 2.8447266 0.5768585 3.871521 1.603653c1.0267944 1.0267944 1.603653 2.4194183 1.603653 3.871521l0 21.900055c0 3.0238495 -2.4513245 5.475174 -5.475174 5.475174l-22.057526 0c-3.023857 0 -5.4751816 -2.4513245 -5.4751816 -5.475174z" fill-rule="nonzero"></path><path stroke="#000000" stroke-width="1.0" stroke-linejoin="round" stroke-linecap="butt" d="m106.926506 157.55391l0 0c0 -3.0238495 2.4513245 -5.475174 5.4751816 -5.475174l22.057526 0l0 0c1.4521027 0 2.8447266 0.5768585 3.871521 1.603653c1.0267944 1.0267944 1.603653 2.4194183 1.603653 3.871521l0 21.900055c0 3.0238495 -2.4513245 5.475174 -5.475174 5.475174l-22.057526 0c-3.023857 0 -5.4751816 -2.4513245 -5.4751816 -5.475174z" fill-rule="nonzero"></path><path fill="#000000" d="m125.35826 170.09581l0 -1.609375l5.765625 0l0 5.046875q-1.328125 1.0625 -2.75 1.59375q-1.40625 0.53125 -2.890625 0.53125q-2.0 0 -3.640625 -0.859375q-1.625 -0.859375 -2.46875 -2.484375q-0.828125 -1.625 -0.828125 -3.625q0 -1.984375 0.828125 -3.703125q0.828125 -1.71875 2.390625 -2.546875q1.5625 -0.84375 3.59375 -0.84375q1.46875 0 2.65625 0.484375q1.203125 0.46875 1.875 1.328125q0.671875 0.84375 1.03125 2.21875l-1.625 0.4375q-0.3125 -1.03125 -0.765625 -1.625q-0.453125 -0.59375 -1.296875 -0.953125q-0.84375 -0.359375 -1.875 -0.359375q-1.234375 0 -2.140625 0.375q-0.890625 0.375 -1.453125 1.0q-0.546875 0.609375 -0.84375 1.34375q-0.53125 1.25 -0.53125 2.734375q0 1.8125 0.625 3.046875q0.640625 1.21875 1.828125 1.8125q1.203125 0.59375 2.546875 0.59375q1.171875 0 2.28125 -0.453125q1.109375 -0.453125 1.6875 -0.953125l0 -2.53125l-4.0 0z" fill-rule="nonzero"></path><path fill="#000000" fill-opacity="0.0" d="m149.33858 136.92914l-25.921257 15.149597" fill-rule="nonzero"></path><path stroke="#000000" stroke-width="1.0" stroke-linejoin="round" stroke-linecap="butt" d="m149.33858 136.92914l-25.921257 15.149597" fill-rule="nonzero"></path><path fill="#000000" fill-opacity="0.0" d="m149.33858 136.92914l22.07875 15.149597" fill-rule="nonzero"></path><path stroke="#000000" stroke-width="1.0" stroke-linejoin="round" stroke-linecap="butt" d="m149.33858 136.92914l22.07875 15.149597" fill-rule="nonzero"></path></g></svg>

